<svg width="46" height="31" viewBox="0 0 168 52" fill="none" xmlns="http://www.w3.org/2000/svg"><g clip-path="url(#clip0_3699_5886)" fill="#03C75A"><path d="M164.581 10.341l-16.718 37.57h-7.742l5.35-11.907-12.851-25.662h7.976l8.541 17.55 7.722-17.55h7.722zm-35.75 28.86h-7.41v-2.073a13.41 13.41 0 01-8.301 2.724c-8.17 0-14.58-6.63-14.58-15.08s6.41-15.08 14.58-15.08a13.41 13.41 0 018.301 2.723v-2.073h7.41v28.86zm-14.684-23.27c-4.667 0-8.19 3.803-8.19 8.84 0 5.038 3.523 8.84 8.19 8.84s8.19-3.802 8.19-8.84c0-5.037-3.523-8.84-8.19-8.84zm-49.926-5.59h7.41v2.074a13.442 13.442 0 018.307-2.723c8.17 0 14.573 6.623 14.573 15.08 0 8.456-6.403 15.08-14.573 15.08a13.403 13.403 0 01-8.047-2.535V47.91h-7.67V10.34zm6.5 14.43c0 5.038 3.523 8.84 8.19 8.84s8.19-3.802 8.19-8.84c0-5.037-3.523-8.84-8.19-8.84s-8.19 3.803-8.19 8.84zM52 26A26 26 0 11.002 26 26 26 0 0152 26zM31.434 12.61v15.119L20.82 12.61h-8.21v26.78h7.963V24.265L31.187 39.39h8.203V12.61h-7.956z"/></g><defs><clipPath id="clip0_3699_5886"><path fill="#fff" d="M0 0h168v52H0z"/></clipPath></defs></svg>